<svg width="65" height="64" viewBox="0 0 65 64" fill="none" xmlns="http://www.w3.org/2000/svg">
<path d="M40.2225 10.5773C53.777 20.0682 57.775 37.7449 49.1524 50.0593C40.5297 62.3737 26.0097 54.3833 12.4553 44.8924C-1.09915 35.4014 9.3319 22.8919 17.9545 10.5775C26.5771 -1.73687 26.6681 1.0864 40.2225 10.5773Z" fill="#CAEA6F"/>
<path d="M24.4594 22.8093L21.2168 19.5666L22.631 18.1524L25.8736 21.395H41.1154C41.6677 21.395 42.1154 21.8428 42.1154 22.395C42.1154 22.4924 42.1012 22.5892 42.0733 22.6824L39.6733 30.6824C39.5464 31.1054 39.157 31.3951 38.7154 31.3951H26.4594V33.3951H37.4595V35.3951H25.4594C24.9071 35.3951 24.4594 34.9473 24.4594 34.3951V22.8093ZM26.4594 23.395V29.3951H37.9714L39.7714 23.395H26.4594ZM25.9594 39.3951C25.131 39.3951 24.4594 38.7235 24.4594 37.8951C24.4594 37.0666 25.131 36.3951 25.9594 36.3951C26.7879 36.3951 27.4594 37.0666 27.4594 37.8951C27.4594 38.7235 26.7879 39.3951 25.9594 39.3951ZM37.9595 39.3951C37.131 39.3951 36.4595 38.7235 36.4595 37.8951C36.4595 37.0666 37.131 36.3951 37.9595 36.3951C38.7879 36.3951 39.4595 37.0666 39.4595 37.8951C39.4595 38.7235 38.7879 39.3951 37.9595 39.3951Z" fill="#202F1C"/>
</svg>
